<?xml version="1.0" encoding="UTF-8"?>
<svg xmlns="http://www.w3.org/2000/svg" version="1.1" viewBox="0 0 654 437.9">
  <!-- Generator: Adobe Illustrator 28.6.0, SVG Export Plug-In . SVG Version: 1.2.0 Build 709)  -->
  <g>
    <g id="Layer_1">
      <g id="Layer_1-2" data-name="Layer_1">
        <g>
          <g>
            <path d="M218.1,408.9c0-1.2,0-2.3.2-3.5h-32.5V117.3h31.7l-13.8-23.9h-17.9V0c-3,4-5.3,9.5-7.7,15.3-5,12.3-10.6,26.1-25.5,30v48h-36.2l13.8,23.9h22.3v320.5h80.3c-8.9-6-14.8-16.7-14.8-28.9h0Z"/>
            <path d="M49.6,211.1c16.1,0,29.1-13.6,29.1-30.3s-.5-6.3-1.4-9.2c5.9-1.5,11.8-.7,17.7,2.3,11,5.6,18.8,17.3,22.5,25.8v83.2h29.2v-118.6h-29.2v11.3c-4.1-.8-9-3.8-14.8-7.4-12.2-7.5-29-17.7-53-17.8h0c-16.1,0-29.1,13.6-29.1,30.3s13,30.3,29.1,30.3h0Z"/>
            <path d="M288.9,150.5h0c-24,0-40.8,10.3-53,17.8-5.8,3.6-10.8,6.6-14.8,7.4v-11.3h-29.2v118.6h29.2v-83.2c3.7-8.5,11.5-20.2,22.5-25.8,5.9-3,11.8-3.7,17.7-2.3-.9,2.9-1.4,6-1.4,9.2,0,16.7,13,30.3,29.1,30.3s29.1-13.6,29.1-30.3-13-30.3-29.1-30.3h-.1Z"/>
            <path d="M137.5,418h0v-75.7h0c-2.4-19.5-19.8-19.9-26.4-19.9h-17.3l-18.6,24.5h32.4c3.5.7,5.2,9.3,0,11.6h-46.6c-11.6,0-28.1-10.5-29.7-22.2-.9-6.6,4.1-20.4,19.4-20.4h47.5l18.6-24.5-74.2.4c-23.2,1.1-38.4,17.6-41.9,34.1-4.7,22.7,13.9,48.2,51.4,70.1h0c1.7,1.4,2.4,2.9,2.1,4.1-.3,1.4-2.1,2.6-4.8,3.3-9.3,2.3-30.5-1.6-47.8-21.8l-.9-1.1v57.4h147.5c-7.2-5.7-10.8-11.9-10.8-19.8h.1ZM95.1,413.8c-7.1,0-12.8-5.7-12.8-12.8s5.7-12.8,12.8-12.8,12.8,5.7,12.8,12.8-5.7,12.8-12.8,12.8Z"/>
          </g>
          <g>
            <path d="M265.2,282.9c10.6,0,16.1,6.4,16.1,17.5v2.2h-10.3v-2.9c0-5-2-6.9-5.5-6.9s-5.5,1.9-5.5,6.9c0,14.3,21.4,17,21.4,36.9s-5.6,17.5-16.3,17.5-16.3-6.4-16.3-17.5v-4.3h10.3v5c0,5,2.2,6.8,5.7,6.8s5.7-1.8,5.7-6.8c0-14.3-21.4-17-21.4-36.9s5.5-17.5,16.1-17.5h0Z"/>
            <path d="M323,353.3h-11l-1.9-12.6h-13.4l-1.9,12.6h-10l11.1-69.6h16l11.1,69.6h0ZM298.1,331.3h10.5l-5.3-35.2-5.3,35.2h0Z"/>
            <path d="M351,353.3c-.6-1.8-1-2.9-1-8.6v-10.9c0-6.5-2.2-8.8-7.2-8.8h-3.8v28.3h-10.9v-69.6h16.5c11.3,0,16.2,5.3,16.2,16v5.5c0,7.2-2.3,11.8-7.2,14.1,5.5,2.3,7.3,7.6,7.3,14.8v10.7c0,3.4,0,5.9,1.2,8.5h-11.1ZM339,293.7v21.4h4.3c4.1,0,6.6-1.8,6.6-7.4v-6.9c0-5-1.7-7.2-5.6-7.2h-5.3Z"/>
            <path d="M403.5,353.3h-11l-1.9-12.6h-13.4l-1.9,12.6h-10l11.1-69.6h16l11.1,69.6h0ZM378.5,331.3h10.5l-5.3-35.2-5.3,35.2h0Z"/>
            <path d="M405.6,343.4h3.8c3.5,0,6.3-1.3,6.3-6.7v-53.1h10.9v52.3c0,13.9-7.5,17.5-15.7,17.5s-3.5,0-5.3-.2v-9.9h0Z"/>
            <path d="M444.9,313.1h15v9.9h-15v20.4h18.9v9.9h-29.8v-69.6h29.8v9.9h-18.9v19.4h0Z"/>
            <path d="M487.1,340.5l8.4-56.8h10l-10.7,69.6h-16.3l-10.7-69.6h11l8.4,56.8h0Z"/>
            <path d="M525.3,282.9c10.6,0,16.1,6.4,16.1,17.5v2.2h-10.3v-2.9c0-5-2-6.9-5.5-6.9s-5.5,1.9-5.5,6.9c0,14.3,21.4,17,21.4,36.9s-5.6,17.5-16.3,17.5-16.3-6.4-16.3-17.5v-4.3h10.3v5c0,5,2.2,6.8,5.7,6.8s5.7-1.8,5.7-6.8c0-14.3-21.4-17-21.4-36.9s5.5-17.5,16.1-17.5h0Z"/>
            <path d="M562.1,325.6l-3.4,6.4v21.4h-10.9v-69.6h10.9v30.3l14.3-30.3h10.9l-15.2,31,15.2,38.6h-11.2l-10.6-27.7h0Z"/>
            <path d="M588.9,283.7h10.9v69.6h-10.9v-69.6Z"/>
            <path d="M273.3,437.8c-.6-1.8-1-2.9-1-8.6v-10.9c0-6.5-2.2-8.8-7.2-8.8h-3.8v28.3h-10.9v-69.6h16.5c11.3,0,16.2,5.3,16.2,16v5.5c0,7.2-2.3,11.8-7.2,14.1,5.5,2.3,7.3,7.6,7.3,14.8v10.7c0,3.4,0,5.9,1.2,8.5h-11.1ZM261.4,378.1v21.4h4.3c4.1,0,6.6-1.8,6.6-7.4v-6.9c0-5-1.7-7.2-5.6-7.2h-5.3Z"/>
            <path d="M325.8,437.8h-11l-1.9-12.6h-13.4l-1.9,12.6h-10l11.1-69.6h16l11.1,69.6h0ZM300.9,415.7h10.5l-5.3-35.2-5.3,35.2h0Z"/>
            <path d="M323.9,368.2h33.8v9.9h-11.4v59.7h-10.9v-59.7h-11.4v-9.9h-.1Z"/>
            <path d="M372.2,387.4v50.4h-9.8v-69.6h13.7l11.2,41.7v-41.7h9.7v69.6h-11.2l-13.6-50.4h0Z"/>
            <path d="M405,368.2h10.9v69.6h-10.9v-69.6Z"/>
            <path d="M436.1,368.2h33.8v9.9h-11.4v59.7h-10.9v-59.7h-11.4v-9.9h-.1Z"/>
            <path d="M485.6,397.5h15v9.9h-15v20.4h18.9v9.9h-29.8v-69.6h29.8v9.9h-18.9v19.4h0Z"/>
            <path d="M546.6,437.8h-11l-1.9-12.6h-13.4l-1.9,12.6h-10l11.1-69.6h16l11.1,69.6h0ZM521.7,415.7h10.5l-5.3-35.2-5.3,35.2h0Z"/>
            <path d="M544.8,368.2h33.8v9.9h-11.4v59.7h-10.9v-59.7h-11.4v-9.9h0Z"/>
            <path d="M614.9,437.8h-11l-1.9-12.6h-13.4l-1.9,12.6h-10l11.1-69.6h16l11.1,69.6h0ZM590,415.7h10.5l-5.3-35.2-5.3,35.2h0Z"/>
            <path d="M642.9,437.8c-.6-1.8-1-2.9-1-8.6v-10.9c0-6.5-2.2-8.8-7.2-8.8h-3.8v28.3h-10.9v-69.6h16.5c11.3,0,16.2,5.3,16.2,16v5.5c0,7.2-2.3,11.8-7.2,14.1,5.5,2.3,7.3,7.6,7.3,14.8v10.7c0,3.4,0,5.9,1.2,8.5h-11.1ZM631,378.1v21.4h4.3c4.1,0,6.6-1.8,6.6-7.4v-6.9c0-5-1.7-7.2-5.6-7.2h-5.3Z"/>
          </g>
        </g>
      </g>
    </g>
  </g>
</svg>